<svg xmlns="http://www.w3.org/2000/svg" width="181.657" height="204.448"><path fill="#62AF1F" d="M180.515 53.545c-1.376 3.427-3.85 6.641-6.688 8.273L129.96 87.15l-31.305 18.077c-4.306 2.474-11.348 2.474-15.657 0L51.529 87.055 7.827 61.819c-2.837-1.633-5.312-4.847-6.685-8.273C.434 55.314 0 57.136 0 58.826v86.789c0 4.985 3.521 11.092 7.827 13.565l43.703 25.239 31.469 18.173c4.309 2.474 11.351 2.474 15.657 0l31.305-18.077 43.867-25.335c4.306-2.474 7.83-8.58 7.83-13.565V58.826c-.001-1.69-.434-3.512-1.143-5.281z"/><path fill="#8CC84B" d="M173.827 45.269L98.655 1.867c-4.306-2.49-11.348-2.49-15.657 0L7.827 45.269c-2.837 1.64-5.312 4.854-6.685 8.276 1.373 3.427 3.847 6.641 6.685 8.273l75.172 43.408c4.309 2.474 11.351 2.474 15.657 0l75.172-43.408c2.838-1.633 5.312-4.847 6.688-8.273-1.377-3.422-3.851-6.636-6.689-8.276z"/><path fill="#62AF1F" d="M98.655 64.188c-4.306 2.471-11.348 2.471-15.657 0L51.529 75.951v67.424l31.469 18.179c4.309 2.474 11.351 2.474 15.657 0l31.305-18.084V76.045L98.655 64.188z"/><g><path fill="#FFF" d="M147.17 64.647l-17.036-9.833L96.14 35.187c-2.926-1.687-7.704-1.687-10.624 0L51.523 54.814l-17.037 9.833c-2.92 1.687-5.309 5.824-5.309 9.203V132.763c0 3.373 2.389 7.518 5.309 9.2l11.563 6.682c5.752 2.904 5.474-5.929 5.474-5.929 0-.025.009-.038.009-.069v-20.393c0-.051-.009-.114-.009-.165v-11.161l33.993 19.621c2.92 1.695 7.697 1.695 10.624 0l33.994-19.621-.069 32.801c.126 2.303.939 7.517 5.805 4.739.06-.038.095-.038.152-.069l11.148-6.436c2.92-1.683 5.309-5.827 5.309-9.2V73.85c0-3.379-2.389-7.517-5.309-9.203z"/><path fill="#F90" d="M126.749 87.083L94.214 105.86c-1.86 1.076-4.914 1.076-6.773 0L54.908 87.083c-1.404-.81-2.613-2.506-3.123-4.22.509-1.699 1.718-3.396 3.123-4.198L87.44 59.873c1.86-1.075 4.913-1.075 6.773 0l32.535 18.793c1.405.803 2.61 2.499 3.123 4.198-.512 1.714-1.718 3.41-3.122 4.219z"/></g></svg>
